<?xml version="1.0" encoding="UTF-8"?>
<!-- Generator: Adobe Illustrator 21.0.0, SVG Export Plug-In . SVG Version: 6.00 Build 0)  -->
<svg enable-background="new 0 0 180 53" version="1.1" viewBox="0 0 180 53" xml:space="preserve" xmlns="http://www.w3.org/2000/svg" xmlns:cc="http://creativecommons.org/ns#" xmlns:dc="http://purl.org/dc/elements/1.1/" xmlns:i="&amp;ns_ai;" xmlns:rdf="http://www.w3.org/1999/02/22-rdf-syntax-ns#"><metadata><rdf:RDF><cc:Work rdf:about=""><dc:format>image/svg+xml</dc:format><dc:type rdf:resource="http://purl.org/dc/dcmitype/StillImage"/><dc:title/></cc:Work></rdf:RDF></metadata><style type="text/css">
	.st0{fill:#00ADEE;}
	.st1{fill:#59595C;}
	.st2{fill-rule:evenodd;clip-rule:evenodd;fill:#00ADEE;}
</style><path d="m25.9 6.6992c-10.8 0-19.6 8.8016-19.6 19.602 0.1 10.8 8.8992 19.6 19.699 19.6 8.4-0.1 15.599-5.6012 18.199-13.201h3.6016l-3-5.0996-3-5.0996-3 5.0996-3 5.0996h3.3984c-1.3 2.9-3.4988 5.2008-6.2988 6.8008v-9.0996l-4.2012-2.4004v-6.8008l-3.3984-2.1992v10l2.6992-1.5996v13.799c-0.7 0.1-1.3996 0.20117-2.0996 0.20117-1 0-2-0.10078-3-0.30078v-10.799l0.90039-0.5v-11.602l-5.1016 2.9004v5.0996l2.4004-1.2988v15.6c-0.9-0.2-1.7004-0.6-2.4004-1v-13.301l-3.1992 1.7012v9.4004c-2.9-2.8-4.8008-6.7-4.8008-11 0-8.3 6.7016-15.102 15.102-15.102 4.9 0.1 9.3 2.5012 12 6.2012 1.9 2.7 5.6 0.30039 4-2.0996-3.5-5.1-9.3004-8.5016-15.9-8.6016zm116.5 9.8008c-1.7 0-3.2008 0.49922-4.3008 1.6992-0.8 0.8-1.3 1.9008-1.5 3.3008h3.4004c0.2-0.5 0.50039-0.89922 0.90039-0.69922 0.4-0.3 0.90039-0.5 1.4004-0.5 0.6 0 0.99844 0.2 1.3984 0.5 0.3 0.4 0.5 0.79883 0.5 1.2988 0 0.4-0.0988 0.79961-0.29883 1.0996-0.3 0.3-0.6 0.60078-1 0.80078s-1.0004 0.30039-1.9004 0.40039v3c1.4 0 2.4992 0.30039 3.1992 0.90039 0.7 0.5 1.1016 1.2996 1.1016 2.0996 0 0.7-0.30078 1.4004-0.80078 1.9004-0.6 0.5-1.2996 0.79883-2.0996 0.79883s-1.5-0.19922-2-0.69922c-0.5-0.4-0.8-1.0996-1-2.0996h-3.5c0.1 1.9 0.80039 3.4 1.9004 4.5s2.5984 1.5996 4.3984 1.5996c1.9 0 3.5012-0.50117 4.7012-1.7012 0.6-0.6 1.1004-1.3 1.4004-2 0.3 0.7 0.69883 1.4 1.2988 2 1.1 1.1 2.5012 1.7012 4.2012 1.7012 1.6 0 2.9996-0.60117 4.0996-1.7012 0.7-0.8 1.3-1.6992 1.5-2.6992 0.1 0.1 0.0992 0.30039 0.19922 0.40039 0.5 1.4 1.2012 2.3 2.2012 3 0.9 0.7 2.1 1 3.5 1s2.6-0.4 3.5-1 1.6992-1.6 2.1992-3 0.80078-3.3008 0.80078-5.8008c0-2.4-0.30078-4.2992-0.80078-5.6992-0.6-1.4-1.3008-2.3996-2.3008-3.0996s-2.1-1-3.5-1c-2.1 0-3.6984 0.8-4.8984 2.5-1.1 1.5-1.6016 3.9984-1.6016 7.3984v0.60156c-0.2-0.4-0.49883-0.80156-0.79883-1.1016-1.1-1.1-2.4-1.6992-4-1.6992l3.2988-6.3008-3-1.5-4.7988 9.4004c-0.4 0.9-0.8 1.6012-1 2.2012-0.2-0.4-0.39961-0.7-0.59961-1-0.7-0.9-1.6012-1.5008-2.7012-1.8008 0.9-0.5 1.5-0.99922 2-1.6992s0.70117-1.5008 0.70117-2.3008c0-1.4-0.60156-2.5-1.6016-3.5s-2.2988-1.5-3.7988-1.5zm23 3.3008c0.8 0 1.4996 0.49883 2.0996 1.2988 0.5 1 0.80078 2.6996 0.80078 5.0996s-0.30039 4.2012-0.90039 5.2012c-0.6 0.9-1.1996 1.2988-2.0996 1.2988s-1.6012-0.39883-2.2012-1.2988c-0.5-0.9-0.79883-2.5004-0.79883-4.9004 0-1.8 0.19844-3.1996 0.39844-4.0996 0.3-1 0.60156-1.6 1.1016-2s0.99961-0.59961 1.5996-0.59961zm-11.701 7.7988c0.7 0 1.3016 0.30117 1.6016 0.70117 0.5 0.5 0.69922 1.0988 0.69922 1.7988s-0.19922 1.3008-0.69922 1.8008-1.0012 0.69922-1.7012 0.69922c-0.6 0-1.0996-0.19922-1.5996-0.69922s-0.69922-1.1008-0.69922-1.8008 0.29922-1.2988 0.69922-1.7988c0.5-0.5 0.99922-0.70117 1.6992-0.70117z" fill="#00adee"/><path class="st1" d="m62.2 28.6c0 0.9 0 1.6-0.1 2.3-0.1 0.6-0.2 1.2-0.3 1.7s-0.3 0.9-0.6 1.3c-0.2 0.4-0.5 0.7-0.8 1s-0.6 0.5-1 0.7-0.7 0.3-1.1 0.4-0.7 0.1-1 0.2h-0.7c-0.5 0-0.9 0-1.2-0.1-0.4-0.1-0.7-0.1-0.9-0.2-0.3-0.1-0.6-0.2-0.8-0.4l-0.7-2.7s0.1 0.1 0.3 0.2 0.4 0.2 0.7 0.3 0.6 0.2 1 0.3 0.8 0.1 1.2 0.1c1.2 0 2-0.4 2.5-1.2 0.3-0.5 0.5-1.1 0.5-1.7 0.1-0.7 0.1-1.3 0.1-2v-12h3.1v11.8zm14.7 0.7h-8.6v0.3c0 0.2 0 0.5 0.1 0.9s0.3 0.8 0.5 1.2c0.3 0.4 0.7 0.8 1.3 1.1s1.3 0.5 2.3 0.5c0.7 0 1.2 0 1.7-0.1s0.9-0.2 1.2-0.4c0.3-0.1 0.6-0.3 0.8-0.4s0.3-0.2 0.3-0.2l-0.4 2.5s-0.1 0.1-0.3 0.2-0.5 0.2-0.8 0.3-0.8 0.2-1.3 0.3-1.1 0.2-1.7 0.2c-1 0-1.9-0.1-2.6-0.4-0.7-0.2-1.3-0.6-1.8-1s-0.9-0.8-1.2-1.3-0.5-1-0.7-1.5-0.3-1-0.3-1.5c-0.1-0.5-0.1-0.9-0.1-1.3s0-0.9 0.1-1.4 0.2-1.1 0.3-1.6c0.2-0.6 0.4-1.1 0.7-1.6s0.6-1 1.1-1.4c0.4-0.4 1-0.8 1.6-1 0.6-0.3 1.4-0.4 2.2-0.4 0.9 0 1.6 0.1 2.2 0.4s1.1 0.6 1.5 1 0.7 0.9 1 1.4c0.2 0.5 0.4 1.1 0.5 1.6s0.2 1.1 0.2 1.6 0.1 0.9 0.1 1.3v0.7zm-2.7-1.9v-0.3c0-0.2 0-0.5-0.1-0.8s-0.1-0.6-0.2-1c-0.1-0.3-0.3-0.7-0.5-1s-0.5-0.5-0.8-0.8c-0.3-0.2-0.7-0.3-1.2-0.3s-1 0.1-1.3 0.3c-0.4 0.2-0.6 0.4-0.9 0.7-0.2 0.3-0.4 0.6-0.5 1s-0.2 0.7-0.3 1-0.1 0.6-0.1 0.8v0.3h5.9zm15.3 8.1h-2.7v-8.8c0-0.4 0-0.8-0.1-1.2 0-0.4-0.1-0.8-0.3-1.1s-0.4-0.6-0.8-0.8c-0.3-0.2-0.8-0.3-1.4-0.3-0.4 0-0.8 0.1-1.1 0.2s-0.6 0.3-0.8 0.5-0.4 0.4-0.5 0.7c-0.1 0.2-0.2 0.5-0.3 0.7-0.1 0.3-0.1 0.5-0.1 0.8v0.7 8.6h-2.7v-14h2.7v1.8c0.1-0.1 0.2-0.3 0.3-0.6 0.2-0.2 0.4-0.5 0.7-0.7s0.7-0.4 1.1-0.6 1-0.3 1.6-0.3c1.5 0 2.7 0.5 3.4 1.4 0.4 0.5 0.6 1.1 0.8 1.7 0.1 0.6 0.2 1.2 0.2 1.9zm13.3 0h-2.6v-1.4c-0.5 0.5-1 0.9-1.6 1.1-0.5 0.3-1.2 0.4-2 0.4-1 0-1.8-0.2-2.5-0.6s-1.2-0.9-1.6-1.6-0.7-1.4-0.9-2.3-0.3-1.8-0.3-2.7c0-0.7 0.1-1.5 0.2-2.3 0.2-0.9 0.4-1.7 0.8-2.4s0.9-1.4 1.6-1.9 1.6-0.8 2.7-0.8c0.6 0 1.2 0.1 1.6 0.3s0.8 0.4 1 0.6c0.3 0.2 0.5 0.5 0.7 0.8v-6.3h2.7v19.1zm-2.7-3.3v-5.7c0-0.4 0-0.8-0.1-1.3-0.1-0.4-0.3-0.8-0.6-1.1-0.2-0.2-0.5-0.4-0.8-0.6-0.3-0.1-0.8-0.2-1.3-0.2-0.7 0-1.2 0.2-1.6 0.5-0.4 0.4-0.7 0.8-0.9 1.4-0.2 0.5-0.3 1.1-0.4 1.7 0 0.6-0.1 1.2-0.1 1.6 0 0.7 0.1 1.3 0.2 1.9s0.3 1.1 0.5 1.5 0.5 0.8 0.9 1c0.4 0.3 0.8 0.4 1.4 0.4 0.3 0 0.6 0 0.8-0.1 0.3-0.1 0.5-0.2 0.8-0.3 0.2-0.1 0.4-0.3 0.6-0.4 0.3 0 0.5-0.1 0.6-0.3zm16.2-2.9h-8.6v0.3c0 0.2 0 0.5 0.1 0.9s0.3 0.8 0.5 1.2c0.3 0.4 0.7 0.8 1.3 1.1s1.3 0.5 2.3 0.5c0.7 0 1.2 0 1.7-0.1s0.9-0.2 1.2-0.4c0.3-0.1 0.6-0.3 0.8-0.4s0.3-0.2 0.3-0.2l-0.4 2.5s-0.1 0.1-0.3 0.2-0.5 0.2-0.8 0.3-0.8 0.2-1.3 0.3-1.1 0.2-1.7 0.2c-1 0-1.9-0.1-2.6-0.4-0.7-0.2-1.3-0.6-1.8-1s-0.9-0.8-1.2-1.3-0.5-1-0.7-1.5-0.3-1-0.3-1.5c-0.1-0.5-0.1-0.9-0.1-1.3s0-0.9 0.1-1.4 0.2-1.1 0.3-1.6c0.2-0.6 0.4-1.1 0.7-1.6s0.6-1 1.1-1.4c0.4-0.4 1-0.8 1.6-1 0.6-0.3 1.4-0.4 2.2-0.4 0.9 0 1.6 0.1 2.2 0.4s1.1 0.6 1.5 1 0.7 0.9 1 1.4c0.2 0.5 0.4 1.1 0.5 1.6s0.2 1.1 0.2 1.6 0.1 0.9 0.1 1.3v0.7zm-2.8-1.9v-0.3c0-0.2 0-0.5-0.1-0.8s-0.1-0.6-0.2-1c-0.1-0.3-0.3-0.7-0.5-1s-0.5-0.5-0.8-0.8c-0.3-0.2-0.7-0.3-1.2-0.3s-1 0.1-1.3 0.3c-0.4 0.2-0.6 0.4-0.9 0.7-0.2 0.3-0.4 0.6-0.5 1s-0.2 0.7-0.3 1-0.1 0.6-0.1 0.8v0.3h5.9zm4.8 8.1v-19h2.7v19zm15.6 0h-1.5-0.4c-0.2 0-0.4-0.1-0.5-0.2s-0.2-0.2-0.2-0.4v-0.4-0.8c-0.4 0.6-1 1.1-1.7 1.5s-1.6 0.6-2.6 0.5c-0.8 0-1.5-0.2-2-0.5s-0.9-0.7-1.2-1.1-0.5-0.9-0.6-1.3c-0.1-0.5-0.2-0.9-0.2-1.2s0-0.6 0.1-1.1 0.3-1 0.7-1.5c0.3-0.4 0.6-0.8 1.1-1 0.4-0.3 0.9-0.5 1.4-0.7s1-0.3 1.6-0.4c0.5-0.1 1.1-0.1 1.6-0.1h0.7c0.2 0 0.4 0 0.5 0.1 0.2 0 0.3 0 0.5 0.1v-0.7-0.9c0-0.4-0.2-0.7-0.4-1.1-0.2-0.3-0.5-0.5-1-0.7-0.4-0.2-1-0.2-1.8-0.2-0.6 0-1.1 0.1-1.6 0.2s-0.8 0.3-1.1 0.4c-0.4 0.2-0.7 0.4-0.9 0.6l0.5-2.5c0.3-0.2 0.6-0.3 0.9-0.5 0.3-0.1 0.7-0.2 1.2-0.3s1-0.1 1.6-0.1c1 0 1.9 0.1 2.6 0.4s1.2 0.6 1.6 1c0.5 0.5 0.8 1 0.9 1.6 0.2 0.5 0.2 1.3 0.2 2.2zm-2.8-4.2v-2.6c-0.1 0-0.3 0-0.5-0.1-0.1 0-0.3 0-0.5-0.1h-0.6c-0.9 0-1.7 0.1-2.4 0.4-0.6 0.3-1.1 0.7-1.3 1.4 0 0.1-0.1 0.3-0.1 0.4v0.4c0 0.8 0.2 1.4 0.7 1.8s1.1 0.5 1.7 0.5c0.1 0 0.3 0 0.5-0.1 0.2 0 0.4-0.1 0.6-0.2 0.5-0.2 0.9-0.4 1.3-0.8 0.5 0 0.6-0.5 0.6-1z" fill="#59595c"/></svg>