<svg width="120" height="46" viewBox="0 0 120 46" fill="none" xmlns="http://www.w3.org/2000/svg">
<path d="M23.0757 0C18.5117 1.7056e-08 14.0502 1.34898 10.2553 3.87634C6.46052 6.4037 3.50284 9.99593 1.75635 14.1987C0.00986225 18.4016 -0.446993 23.0262 0.443552 27.4878C1.3341 31.9494 3.53204 36.0476 6.75944 39.2642C9.98684 42.4807 14.0987 44.6711 18.5751 45.5583C23.0515 46.4455 27.6913 45.9898 31.9078 44.2487C36.1243 42.5075 39.7281 39.5593 42.2635 35.7767C44.7988 31.9941 46.1519 27.5471 46.1515 22.998V22.998C46.151 16.8984 43.7195 11.0487 39.3921 6.73584C35.0646 2.42293 29.1955 -2.28697e-08 23.0757 0V0Z" fill="#B1E9F3"/>
<path d="M33.7624 15.5969H33.3528C32.9837 13.1437 31.7434 10.904 29.8576 9.28517C27.9717 7.66637 25.5656 6.776 23.0768 6.776C20.588 6.776 18.1818 7.66637 16.296 9.28517C14.4102 10.904 13.1699 13.1437 12.8008 15.5969H12.3892C10.9141 15.5979 9.49968 16.1824 8.45662 17.2221C7.41357 18.2617 6.82711 19.6714 6.82605 21.1417V25.2565C6.82605 25.6654 6.98901 26.0575 7.27906 26.3466C7.56911 26.6357 7.96251 26.7981 8.3727 26.7981H11.6019C11.9223 27.7312 12.5274 28.5412 13.3325 29.1147C14.1376 29.6881 15.1024 29.9964 16.0919 29.9964C17.0815 29.9964 18.0463 29.6881 18.8513 29.1147C19.6564 28.5412 20.2615 27.7312 20.582 26.7981H25.5776C25.899 27.7303 26.5045 28.5392 27.3094 29.1118C28.1144 29.6845 29.0787 29.9923 30.0676 29.9923C31.0566 29.9923 32.0209 29.6845 32.8258 29.1118C33.6308 28.5392 34.2363 27.7303 34.5577 26.7981H37.7849C38.1952 26.7981 38.5888 26.6358 38.8792 26.3467C39.1696 26.0577 39.333 25.6656 39.3335 25.2565V21.1417C39.3319 19.6702 38.7442 18.2596 37.6995 17.2198C36.6549 16.1801 35.2387 15.5963 33.7624 15.5969V15.5969Z" fill="#17376D"/>
<path d="M35.243 33.1198C33.0609 31.4189 32.1997 31.2715 31.5742 31.5742C31.381 31.667 31.2181 31.8124 31.1042 31.9935C30.9904 32.1747 30.9303 32.3842 30.9308 32.598C30.9304 32.7253 30.9513 32.8519 30.9927 32.9724C29.9746 34.0376 28.756 34.8924 27.4064 35.4881C26.0568 36.0838 24.6027 36.4087 23.1272 36.4442C21.6516 36.4797 20.1835 36.2251 18.8066 35.6951C17.4298 35.165 16.1712 34.3697 15.1027 33.3548C14.9568 33.2174 14.815 33.076 14.6791 32.9306C14.4385 32.6767 14.1066 32.5286 13.7564 32.5187C13.4062 32.5088 13.0664 32.638 12.8117 32.8778C12.5571 33.1176 12.4084 33.4484 12.3985 33.7975C12.3885 34.1465 12.5181 34.4852 12.7587 34.739C15.2838 37.4073 18.7689 38.9666 22.4474 39.0738C26.1258 39.181 29.6964 37.8273 32.3735 35.3106C32.7092 34.9959 33.0276 34.664 33.3287 34.3148C33.5125 34.4442 33.7104 34.5916 33.9401 34.7709C34.0484 34.8625 34.1741 34.9314 34.3096 34.9736C34.4452 35.0157 34.5879 35.0302 34.7292 35.0161C34.8705 35.0021 35.0075 34.9598 35.1321 34.8918C35.2566 34.8238 35.3662 34.7315 35.4541 34.6204C35.5421 34.5093 35.6067 34.3817 35.6441 34.2451C35.6815 34.1086 35.6909 33.9659 35.6717 33.8257C35.6526 33.6854 35.6053 33.5505 35.5327 33.4288C35.46 33.3072 35.3636 33.2014 35.249 33.1178L35.243 33.1198Z" fill="#17376D"/>
<path d="M16.0919 23.6115C16.4199 23.6115 16.7406 23.7084 17.0133 23.89C17.2861 24.0717 17.4987 24.3299 17.6242 24.6319C17.7497 24.934 17.7826 25.2664 17.7186 25.5871C17.6546 25.9077 17.4966 26.2023 17.2647 26.4335C17.0327 26.6647 16.7372 26.8221 16.4155 26.8859C16.0937 26.9497 15.7603 26.9169 15.4572 26.7918C15.1541 26.6667 14.8951 26.4548 14.7129 26.183C14.5306 25.9111 14.4334 25.5915 14.4334 25.2645C14.4331 25.0474 14.4758 24.8323 14.5591 24.6316C14.6423 24.4309 14.7645 24.2486 14.9185 24.0951C15.0726 23.9415 15.2555 23.8197 15.4569 23.7367C15.6582 23.6538 15.874 23.6112 16.0919 23.6115ZM30.0616 23.6115C29.7336 23.6115 29.4129 23.7084 29.1402 23.89C28.8674 24.0717 28.6549 24.3299 28.5293 24.6319C28.4038 24.934 28.371 25.2664 28.435 25.5871C28.499 25.9077 28.6569 26.2023 28.8889 26.4335C29.1208 26.6647 29.4163 26.8221 29.7381 26.8859C30.0598 26.9497 30.3933 26.9169 30.6963 26.7918C30.9994 26.6667 31.2584 26.4548 31.4407 26.183C31.6229 25.9111 31.7202 25.5915 31.7202 25.2645V25.2645C31.7196 24.8263 31.5447 24.4061 31.2338 24.0962C30.9229 23.7863 30.5013 23.612 30.0616 23.6115V23.6115Z" fill="white"/>
<path d="M33.7623 18.6821H24.7602C20.1103 18.5168 21.2893 15.597 21.2893 15.597H30.2035C29.8503 13.9744 28.9505 12.5213 27.6537 11.4792C26.357 10.4371 24.7415 9.86877 23.0757 9.86877C21.41 9.86877 19.7944 10.4371 18.4977 11.4792C17.201 12.5213 16.3012 13.9744 15.948 15.597C15.948 15.597 15.7342 18.5347 12.8807 18.6821H12.3891C12.0645 18.6813 11.743 18.7443 11.4429 18.8676C11.1428 18.9909 10.87 19.1719 10.6402 19.4004C10.4104 19.6289 10.2281 19.9003 10.1037 20.1991C9.97931 20.4979 9.91528 20.8183 9.91528 21.1418V23.7131H11.5958C11.9167 22.7806 12.5219 21.9714 13.3267 21.3985C14.1316 20.8256 15.0959 20.5177 16.0849 20.5177C17.0739 20.5177 18.0382 20.8256 18.843 21.3985C19.6479 21.9714 20.253 22.7806 20.5739 23.7131H25.5695C25.891 22.7809 26.4964 21.972 27.3014 21.3993C28.1064 20.8267 29.0706 20.5189 30.0596 20.5189C31.0486 20.5189 32.0128 20.8267 32.8178 21.3993C33.6228 21.972 34.2282 22.7809 34.5497 23.7131H36.2302V21.1418C36.2291 20.4898 35.9688 19.8647 35.5062 19.4037C35.0436 18.9426 34.4165 18.6831 33.7623 18.6821V18.6821Z" fill="#F47B2B"/>
<path d="M64.4849 14.6998H64.4455C63.862 14.6998 63.2826 14.7843 62.7305 14.9493C62.2557 15.0813 61.805 15.2833 61.3898 15.5489L61.3809 15.5553C61.1499 15.713 60.9286 15.8877 60.7218 16.076C60.5359 15.8998 60.3379 15.7356 60.1311 15.5859L60.1246 15.5811C59.7231 15.3034 59.282 15.0926 58.8209 14.9566C58.2825 14.7867 57.7224 14.7006 57.1582 14.7006H57.1268C57.0625 14.7006 56.9989 14.7039 56.9353 14.7071L56.9039 14.7087L56.8508 14.7063C56.7904 14.7039 56.7293 14.7006 56.6681 14.7006C55.1286 14.7006 53.8482 15.2262 52.8631 16.2619C51.8925 17.2832 51.4 18.6851 51.4 20.4282V26.1744C51.4 27.1779 52.2161 27.994 53.2196 27.994H53.2301C53.7162 27.994 54.1733 27.8049 54.5169 27.4612C54.8606 27.1176 55.0497 26.6605 55.0497 26.1744V20.8508C55.0553 19.9977 55.2549 19.3531 55.6605 18.8823L55.6694 18.8718L55.6774 18.8605C55.9671 18.4686 56.413 18.2441 56.9007 18.2441C57.2274 18.2441 57.5389 18.3471 57.802 18.5418C57.9244 18.632 58.0314 18.7398 58.1215 18.8613L58.1304 18.8734L58.1401 18.8847C58.5481 19.3563 58.7485 19.9993 58.7541 20.8491V26.1744C58.7541 27.1779 59.5701 27.994 60.5737 27.994C61.5773 27.994 62.3933 27.1779 62.3933 26.1744V20.8516C62.3989 19.9993 62.6001 19.3563 63.0074 18.8847L63.0162 18.8742C63.3405 18.4702 63.8242 18.2384 64.3425 18.2384H64.3868C64.4117 18.2368 64.4358 18.236 64.4608 18.236C64.8954 18.236 65.3131 18.4203 65.6052 18.7398C65.9327 19.1012 66.0985 19.6693 66.0985 20.4282V26.1744C66.0985 27.1779 66.9146 27.994 67.9181 27.994H67.9286C68.9321 27.994 69.7482 27.1779 69.7482 26.1744V20.4282C69.7482 18.6851 69.2557 17.2832 68.2851 16.2619C67.3001 15.2262 66.0205 14.7006 64.4825 14.7006L64.4849 14.6998Z" fill="white"/>
<path d="M77.6665 14.6998C77.6359 14.6998 77.6061 14.6998 77.5763 14.6998C77.5465 14.6998 77.5176 14.6998 77.4878 14.6998C75.7503 14.6998 74.0643 15.4185 72.8611 16.6723L72.8595 16.674C71.6 17.9367 70.8967 19.6814 70.9288 21.4648C70.8958 23.2514 71.6016 24.9978 72.866 26.2573C74.1198 27.5216 75.7913 28.2185 77.5723 28.2185C79.3315 28.2185 80.9894 27.5361 82.2392 26.2967L82.2778 26.2581C83.5397 24.9962 84.2439 23.2498 84.2101 21.4656C84.2431 19.6822 83.5405 17.9358 82.2819 16.6715C81.0819 15.4185 79.3999 14.7006 77.6648 14.7006L77.6665 14.6998ZM79.6704 23.7802C79.1312 24.3596 78.3674 24.692 77.5747 24.692C76.8488 24.692 76.1567 24.4192 75.6247 23.9242C75.5724 23.8759 75.5217 23.8244 75.4726 23.7721C74.2743 22.4764 74.2735 20.4451 75.4726 19.147C75.9981 18.5692 76.7482 18.2384 77.5288 18.2384H77.6101C78.3908 18.2384 79.1408 18.57 79.6679 19.1487C80.8638 20.4476 80.8638 22.4837 79.6695 23.781L79.6704 23.7802Z" fill="white"/>
<path d="M116.373 14.9357C115.37 14.9357 114.553 15.7517 114.553 16.7553V26.1744C114.553 27.178 115.37 27.994 116.373 27.994C117.377 27.994 118.193 27.178 118.193 26.1744V16.7553C118.193 15.7517 117.377 14.9357 116.373 14.9357V14.9357Z" fill="white"/>
<path d="M92.1299 14.6999C92.0993 14.6999 92.0695 14.6999 92.0398 14.6999C92.0108 14.6999 91.981 14.6999 91.952 14.6999C90.9308 14.6999 89.9337 14.9421 89.0307 15.4057V11.0204C89.0307 10.0169 88.2147 9.20081 87.2111 9.20081C86.2075 9.20081 85.3915 10.0169 85.3915 11.0204V22.2592H85.4269C85.5806 23.7721 86.2486 25.1813 87.3294 26.2573C88.5832 27.5216 90.2548 28.2185 92.0357 28.2185C93.795 28.2185 95.4528 27.5361 96.7018 26.2975L96.7413 26.2581C98.0032 24.9962 98.7074 23.2498 98.6736 21.4656C98.7066 19.6823 98.004 17.9359 96.7453 16.6716C95.5454 15.4193 93.8626 14.7007 92.1283 14.7007L92.1299 14.6999ZM94.1338 23.7802C93.5946 24.3596 92.8309 24.692 92.0382 24.692C91.3122 24.692 90.6201 24.4192 90.0882 23.9242C90.0359 23.876 89.9852 23.8245 89.9361 23.7721C88.7378 22.4764 88.737 20.4452 89.9361 19.1463C90.4616 18.5684 91.2116 18.2377 91.9923 18.2377H92.0736C92.8542 18.2377 93.6043 18.5692 94.1314 19.1479C95.3273 20.4468 95.3273 22.4829 94.133 23.7802H94.1338Z" fill="white"/>
<path d="M106.593 14.6999C106.563 14.6999 106.533 14.6999 106.503 14.6999C106.474 14.6999 106.445 14.6999 106.416 14.6999C105.394 14.6999 104.397 14.9421 103.494 15.4057V11.0204C103.494 10.0169 102.678 9.20081 101.675 9.20081C100.671 9.20081 99.855 10.0169 99.855 11.0204V22.2592H99.8904C100.044 23.7721 100.712 25.1813 101.793 26.2573C103.047 27.5216 104.718 28.2185 106.499 28.2185C108.258 28.2185 109.916 27.5361 111.165 26.2975L111.205 26.2581C112.467 24.9962 113.171 23.2498 113.137 21.4656C113.17 19.6823 112.467 17.9359 111.209 16.6716C110.009 15.4185 108.327 14.7007 106.592 14.7007L106.593 14.6999ZM108.597 23.7802C108.058 24.3596 107.294 24.692 106.502 24.692C105.776 24.692 105.084 24.4192 104.552 23.9242C104.499 23.876 104.449 23.8245 104.4 23.7721C103.201 22.4764 103.2 20.4452 104.4 19.1463C104.925 18.5684 105.675 18.2377 106.456 18.2377H106.537C107.318 18.2377 108.068 18.5692 108.595 19.1479C109.791 20.4468 109.791 22.4829 108.596 23.7802H108.597Z" fill="white"/>
<path d="M116.346 13.2649H116.372C117.492 13.2536 118.395 12.3322 118.383 11.2119C118.372 10.1029 117.46 9.19995 116.351 9.19995H116.33C115.787 9.20558 115.279 9.42207 114.9 9.80998C114.52 10.1979 114.314 10.7105 114.319 11.2529C114.325 11.7881 114.536 12.2911 114.914 12.6686C115.291 13.0476 115.813 13.2649 116.347 13.2649H116.346Z" fill="white"/>
<path d="M56.4192 36.7724V33.9797C56.4192 33.386 56.1997 32.917 55.5452 32.917C54.9864 32.917 54.437 33.4019 54.437 34.4499V36.7735H53.9285V33.9808C53.9285 33.3872 53.7069 32.9181 53.0524 32.9181C52.4925 32.9181 51.9421 33.403 51.9421 34.451V36.7746H51.4305V33.5616C51.4305 33.2399 51.4305 32.9102 51.4 32.5726H51.8948V33.2807L51.9095 33.2886C52.0723 33.0008 52.3139 32.4729 53.1984 32.4729C53.563 32.4729 54.1617 32.6292 54.291 33.3622H54.3078C54.4916 32.8694 54.9801 32.4729 55.6272 32.4729C56.4602 32.4729 56.9308 33.0666 56.9308 33.8823V36.7735H56.4203L56.4192 36.7724Z" fill="white"/>
<path d="M61.2057 36.5487C60.8166 36.6927 60.3142 36.7746 59.9 36.7746C58.41 36.7746 57.8527 35.8565 57.8527 34.6238C57.8527 33.3911 58.6102 32.4729 59.7477 32.4729C61.0192 32.4729 61.5399 33.4077 61.5399 34.5108V34.7677H58.4615C58.4615 35.6372 58.9719 36.3394 59.9446 36.3394C60.3497 36.3394 60.9413 36.1865 61.2057 36.0337V36.5487V36.5487ZM60.9299 34.3336C60.9299 33.6159 60.6141 32.9082 59.7855 32.9082C58.957 32.9082 58.4615 33.6569 58.4615 34.3336H60.9288H60.9299Z" fill="white"/>
<path d="M67.4817 36.7724V33.9797C67.4817 33.386 67.2632 32.917 66.6075 32.917C66.0475 32.917 65.4959 33.4019 65.4959 34.4499V36.7735H64.9874V33.9808C64.9874 33.3872 64.7689 32.9181 64.1122 32.9181C63.5532 32.9181 63.0016 33.403 63.0016 34.451V36.7746H62.492V33.5616C62.492 33.2399 62.492 32.9102 62.4615 32.5726H62.9533V33.2807L62.9701 33.2886C63.1319 33.0008 63.3735 32.4729 64.2572 32.4729C64.6218 32.4729 65.2217 32.6292 65.3509 33.3622H65.3667C65.5537 32.8694 66.0391 32.4729 66.6885 32.4729C67.5227 32.4729 67.9923 33.0666 67.9923 33.8823V36.7735H67.4828L67.4817 36.7724Z" fill="white"/>
<path d="M69.2214 30.9365H69.7559V33.4336H69.7735C69.8496 33.2418 70.2749 32.6824 71.1234 32.6824C72.3973 32.6824 72.9086 33.541 72.9086 34.7285C72.9086 35.9159 72.3125 36.7746 71.1234 36.7746C70.503 36.7746 70.06 36.5596 69.7735 36.0623H69.7559V36.6829H69.2214V30.9365ZM71.0375 33.0975C70.0589 33.0975 69.7548 34.0162 69.7548 34.7295C69.7548 35.4428 70.0865 36.3616 71.0375 36.3616C72.0568 36.3616 72.3213 35.4881 72.3213 34.7295C72.3213 33.9709 72.0568 33.0975 71.0375 33.0975Z" fill="white"/>
<path d="M76.8739 36.5487C76.4883 36.6927 75.9825 36.7746 75.5693 36.7746C74.0782 36.7746 73.5232 35.8565 73.5232 34.6238C73.5232 33.3911 74.2819 32.4729 75.4194 32.4729C76.6897 32.4729 77.2104 33.4077 77.2104 34.5108V34.7677H74.132C74.132 35.6372 74.6413 36.3394 75.6151 36.3394C76.0202 36.3394 76.6107 36.1865 76.8751 36.0337V36.5487H76.8739ZM76.6004 34.3336C76.6004 33.6159 76.2834 32.9082 75.4538 32.9082C74.6241 32.9082 74.132 33.6569 74.132 34.3336H76.6004Z" fill="white"/>
<path d="M78.1641 33.5109C78.1641 33.0508 78.1641 32.8775 78.1322 32.5726H78.6163V33.3806H78.6332C78.8085 32.9103 79.1382 32.4729 79.6391 32.4729C79.7527 32.4729 79.8921 32.4978 79.9758 32.5239V33.0667C79.8762 33.0338 79.7467 33.0168 79.6232 33.0168C78.8563 33.0168 78.6461 33.9404 78.6461 34.6974V36.7746H78.1641V33.5109V33.5109Z" fill="white"/>
<path d="M84.7379 32.4729C86.1242 32.4729 86.7357 33.5051 86.7357 34.6238C86.7357 35.7424 86.1242 36.7746 84.7379 36.7746C83.3516 36.7746 82.7412 35.7435 82.7412 34.6238C82.7412 33.504 83.3549 32.4729 84.7379 32.4729ZM84.7379 36.3394C85.6606 36.3394 86.1557 35.574 86.1557 34.6238C86.1557 33.6735 85.6606 32.9082 84.7379 32.9082C83.8152 32.9082 83.3212 33.6724 83.3212 34.6238C83.3212 35.5751 83.8163 36.3394 84.7379 36.3394Z" fill="white"/>
<path d="M88.2045 33.0958H87.3501V32.6611H88.2045V32.3627C88.2045 31.4999 88.2357 30.6293 89.3209 30.6293C89.4841 30.6293 89.7084 30.6526 89.8082 30.7091L89.7739 31.1539C89.6687 31.0973 89.513 31.0651 89.3628 31.0651C88.6511 31.0651 88.7262 31.8149 88.7262 32.3062V32.6622H89.6762V33.0969H88.7262V36.7746H88.2056V33.0969L88.2045 33.0958Z" fill="white"/>
<path d="M94.5226 31.2438H95.8331L98.1044 36.7746H96.8187L96.3227 35.5074H93.9739L93.4671 36.7746H92.2664L94.5226 31.2438ZM95.1617 32.353H95.1445L94.3053 34.6346H95.9988L95.1606 32.353H95.1617Z" fill="white"/>
<path d="M101.963 32.3141C101.605 32.1687 101.206 32.0845 100.808 32.0845C100.41 32.0845 99.9096 32.2456 99.9096 32.8272C99.9096 33.7553 102.406 33.3644 102.406 35.1575C102.406 36.33 101.417 36.7746 100.268 36.7746C99.6493 36.7746 99.3709 36.6977 98.8079 36.5681L98.9137 35.6031C99.3043 35.8022 99.753 35.9318 100.203 35.9318C100.653 35.9318 101.215 35.7242 101.215 35.2428C101.215 34.223 98.719 34.6455 98.719 32.8756C98.719 31.6799 99.7054 31.2438 100.709 31.2438C101.201 31.2438 101.655 31.3049 102.073 31.4355L101.964 32.3162L101.963 32.3141Z" fill="white"/>
<path d="M104.615 32.1155H103.021V31.2438H107.322V32.1155H105.728V36.7746H104.614V32.1155H104.615Z" fill="white"/>
<path d="M107.938 31.2439H109.183C110.42 31.2439 111.895 31.2046 111.895 32.742C111.895 33.3914 111.439 33.9297 110.708 34.0256V34.0408C111.02 34.0648 111.201 34.3655 111.315 34.6107L112.239 36.7746H110.954L110.26 35.0465C110.097 34.6346 109.947 34.4766 109.461 34.4766H109.09V36.7746H107.937V31.2439H107.938ZM109.091 33.605H109.472C110.038 33.605 110.692 33.5265 110.692 32.8368C110.692 32.1471 110.048 32.1155 109.472 32.1155H109.091V33.605Z" fill="white"/>
<path d="M114.803 31.2438H116.114L118.384 36.7746H117.099L116.602 35.5074H114.254L113.749 36.7746H112.546L114.803 31.2438ZM115.439 32.353H115.425L114.586 34.6346H116.277L115.439 32.353Z" fill="white"/>
</svg>